<svg width="103" height="44" viewBox="0 0 103 44" fill="none" xmlns="http://www.w3.org/2000/svg">
<rect x="1.5" y="10.5" width="89.5391" height="32" stroke="white" stroke-width="3"/>
<path d="M23.875 35.22C22.195 35.22 21.0016 34.7533 20.295 33.82C19.6016 32.8733 19.255 31.54 19.255 29.82V24.04C19.255 22.2667 19.6016 20.92 20.295 20C20.9883 19.08 22.1816 18.62 23.875 18.62C25.4616 18.62 26.5883 19.02 27.255 19.82C27.9216 20.62 28.255 21.7733 28.255 23.28V24.64H25.415V23.24C25.415 22.6667 25.3883 22.22 25.335 21.9C25.2816 21.5667 25.1416 21.3 24.915 21.1C24.7016 20.8867 24.3616 20.78 23.895 20.78C23.415 20.78 23.055 20.8933 22.815 21.12C22.575 21.3333 22.415 21.6267 22.335 22C22.2683 22.36 22.235 22.8333 22.235 23.42V30.44C22.235 31.36 22.355 32.0267 22.595 32.44C22.835 32.84 23.2683 33.04 23.895 33.04C24.3483 33.04 24.6816 32.9333 24.895 32.72C25.1216 32.5067 25.2616 32.2267 25.315 31.88C25.3816 31.52 25.415 31.0467 25.415 30.46V29H28.255V30.3C28.255 31.86 27.9283 33.0733 27.275 33.94C26.6216 34.7933 25.4883 35.22 23.875 35.22ZM32.3157 18.8H36.2157C37.9224 18.8 39.1957 19.1267 40.0357 19.78C40.8757 20.42 41.2957 21.5267 41.2957 23.1C41.2957 24.1267 41.1424 24.9667 40.8357 25.62C40.5424 26.26 40.0291 26.7267 39.2957 27.02L41.5557 35H38.5957L36.6557 27.58H35.2557V35H32.3157V18.8ZM36.1957 25.74C37.0357 25.74 37.6291 25.5467 37.9757 25.16C38.3357 24.7733 38.5157 24.14 38.5157 23.26C38.5157 22.4067 38.3557 21.7867 38.0357 21.4C37.7291 21.0133 37.1691 20.82 36.3557 20.82H35.2557V25.74H36.1957ZM45.6067 18.8H48.5267V35H45.6067V18.8ZM57.1145 35.22C55.6478 35.22 54.5478 34.8067 53.8145 33.98C53.0945 33.1533 52.7012 31.92 52.6345 30.28L55.1745 29.78C55.2145 30.8067 55.3745 31.5933 55.6545 32.14C55.9478 32.6733 56.4012 32.94 57.0145 32.94C57.4678 32.94 57.8012 32.8067 58.0145 32.54C58.2412 32.26 58.3545 31.8867 58.3545 31.42C58.3545 30.78 58.2078 30.24 57.9145 29.8C57.6345 29.3467 57.1878 28.8533 56.5745 28.32L54.5345 26.54C53.9078 26.0067 53.4345 25.4333 53.1145 24.82C52.8078 24.2067 52.6545 23.4733 52.6545 22.62C52.6545 21.3533 53.0212 20.3733 53.7545 19.68C54.5012 18.9733 55.5278 18.62 56.8345 18.62C58.2345 18.62 59.2345 19.02 59.8345 19.82C60.4478 20.6067 60.8012 21.6733 60.8945 23.02L58.3545 23.46C58.3145 22.58 58.1878 21.92 57.9745 21.48C57.7745 21.0267 57.3745 20.8 56.7745 20.8C56.3478 20.8 56.0145 20.9467 55.7745 21.24C55.5345 21.52 55.4145 21.88 55.4145 22.32C55.4145 22.84 55.5145 23.28 55.7145 23.64C55.9278 23.9867 56.2678 24.36 56.7345 24.76L58.7545 26.54C59.5145 27.1933 60.1078 27.8933 60.5345 28.64C60.9612 29.3867 61.1745 30.2533 61.1745 31.24C61.1745 32.0133 61.0012 32.7 60.6545 33.3C60.3212 33.9 59.8478 34.3733 59.2345 34.72C58.6212 35.0533 57.9145 35.22 57.1145 35.22ZM64.9173 18.8H69.6773C72.4373 18.8 73.8173 20.3333 73.8173 23.4C73.8173 26.3333 72.3706 27.8 69.4773 27.8H67.8573V35H64.9173V18.8ZM68.9973 25.72C69.7973 25.72 70.3373 25.5533 70.6173 25.22C70.8973 24.8733 71.0373 24.26 71.0373 23.38C71.0373 22.74 70.9906 22.2533 70.8973 21.92C70.804 21.5733 70.6106 21.3133 70.3173 21.14C70.0373 20.9667 69.5973 20.88 68.9973 20.88H67.8573V25.72H68.9973Z" fill="white"/>
<path d="M97.4383 38V33.5H100.704V1.5H11.4314V4.5H7.0766" stroke="white" stroke-width="3"/>
</svg>
